<?xml version="1.0" encoding="UTF-8" standalone="no"?>
<!DOCTYPE svg PUBLIC "-//W3C//DTD SVG 1.1//EN"
 "http://www.w3.org/Graphics/SVG/1.1/DTD/svg11.dtd">
<!-- Generated by graphviz version 2.43.0 (0)
 -->
<!-- Title: %3 Pages: 1 -->
<svg width="1032pt" height="380pt"
 viewBox="0.00 0.00 1032.00 380.00" xmlns="http://www.w3.org/2000/svg" xmlns:xlink="http://www.w3.org/1999/xlink">
<g id="graph0" class="graph" transform="scale(1 1) rotate(0) translate(4 376)">
<title>%3</title>
<polygon fill="white" stroke="transparent" points="-4,4 -4,-376 1028,-376 1028,4 -4,4"/>
<g id="clust1" class="cluster">
<title>cluster</title>
<polygon fill="#234178" fill-opacity="0.184314" stroke="black" points="8,-8 8,-364 1016,-364 1016,-8 8,-8"/>
<text text-anchor="middle" x="512" y="-348.8" font-family="Times,serif" font-size="14.00">Global</text>
</g>
<g id="clust2" class="cluster">
<title>cluster_1</title>
<polygon fill="#234178" fill-opacity="0.184314" stroke="black" points="862,-80 862,-245 932,-245 932,-80 862,-80"/>
<text text-anchor="middle" x="897" y="-229.8" font-family="Times,serif" font-size="14.00">System</text>
</g>
<g id="clust3" class="cluster">
<title>cluster_2</title>
<polygon fill="#234178" fill-opacity="0.184314" stroke="black" points="192,-86 192,-333 590,-333 590,-86 192,-86"/>
<text text-anchor="middle" x="391" y="-317.8" font-family="Times,serif" font-size="14.00">CellType[cells]</text>
</g>
<g id="clust4" class="cluster">
<title>cluster_cpm2</title>
<polygon fill="#234178" fill-opacity="0.184314" stroke="black" points="415,-170 415,-245 523,-245 523,-170 415,-170"/>
<text text-anchor="middle" x="469" y="-229.8" font-family="Times,serif" font-size="14.00">CPM plugins</text>
</g>
<g id="clust5" class="cluster">
<title>cluster_3</title>
<polygon fill="#234178" fill-opacity="0.184314" stroke="black" points="861,-258 861,-333 1008,-333 1008,-258 861,-258"/>
<text text-anchor="middle" x="934.5" y="-317.8" font-family="Times,serif" font-size="14.00">CellType[medium]</text>
</g>
<!-- Diffusion_0_1 -->
<g id="node1" class="node">
<title>Diffusion_0_1</title>
<polygon fill="#fffea3" stroke="transparent" points="1008,-136 942,-136 942,-88 1008,-88 1008,-136"/>
<text text-anchor="start" x="946" y="-120" font-family="times" font-size="15.00">Diffusion</text>
<text text-anchor="start" x="971" y="-97" font-family="times" font-size="15.00">1</text>
<polygon fill="black" stroke="black" points="942,-112 942,-112 1008,-112 1008,-112 942,-112"/>
<polygon fill="none" stroke="black" points="942,-88 942,-136 1008,-136 1008,-88 942,-88"/>
</g>
<!-- U_0 -->
<g id="node3" class="node">
<title>U_0</title>
<g id="a_node3"><a xlink:href="morph://MorpheusModel/Global/Field" xlink:title="U">
<ellipse fill="#d3d247" stroke="black" cx="936" cy="-34" rx="27" ry="18"/>
<text text-anchor="middle" x="936" y="-30.3" font-family="Times,serif" font-size="14.00">U</text>
</a>
</g>
</g>
<!-- Diffusion_0_1&#45;&gt;U_0 -->
<g id="edge4" class="edge">
<title>Diffusion_0_1&#45;&gt;U_0</title>
<path fill="none" stroke="#8f100d" stroke-width="3" d="M956.81,-87.78C951.95,-79.41 947.01,-69.9 943.03,-61.29"/>
<polygon fill="#8f100d" stroke="#8f100d" stroke-width="3" points="946.21,-59.81 939.01,-52.04 939.79,-62.61 946.21,-59.81"/>
</g>
<!-- CPM_0_1 -->
<g id="node2" class="node">
<title>CPM_0_1</title>
<g id="a_node2"><a xlink:href="morph://MorpheusModel/CPM" xlink:title="&lt;TABLE&gt;">
<polygon fill="#fffea3" stroke="transparent" points="690,-312 634,-312 634,-256 690,-256 690,-312"/>
<text text-anchor="start" x="646" y="-292" font-family="times" font-size="15.00">CPM</text>
<text text-anchor="start" x="658" y="-269" font-family="times" font-size="15.00">1</text>
<polygon fill="black" stroke="black" points="642,-284 642,-284 682,-284 682,-284 642,-284"/>
<polygon fill="none" stroke="black" points="642,-260 642,-308 682,-308 682,-260 642,-260"/>
</a>
</g>
</g>
<!-- cell_center_0 -->
<g id="node4" class="node">
<title>cell_center_0</title>
<ellipse fill="#b5b426" stroke="black" cx="662" cy="-196" rx="59.6" ry="18"/>
<ellipse fill="none" stroke="black" cx="662" cy="-196" rx="63.59" ry="22"/>
<text text-anchor="middle" x="662" y="-192.3" font-family="Times,serif" font-size="14.00">cell.center</text>
</g>
<!-- CPM_0_1&#45;&gt;cell_center_0 -->
<g id="edge2" class="edge">
<title>CPM_0_1&#45;&gt;cell_center_0</title>
<path fill="none" stroke="#8f100d" stroke-width="3" d="M662,-255.79C662,-247.02 662,-237.23 662,-228.19"/>
<polygon fill="#8f100d" stroke="#8f100d" stroke-width="3" points="665.5,-228.04 662,-218.04 658.5,-228.04 665.5,-228.04"/>
</g>
<!-- cell_type_0 -->
<g id="node5" class="node">
<title>cell_type_0</title>
<ellipse fill="#d3d247" stroke="black" cx="798" cy="-196" rx="50.09" ry="18"/>
<ellipse fill="none" stroke="black" cx="798" cy="-196" rx="54.09" ry="22"/>
<text text-anchor="middle" x="798" y="-192.3" font-family="Times,serif" font-size="14.00">cell.type</text>
</g>
<!-- CPM_0_1&#45;&gt;cell_type_0 -->
<g id="edge3" class="edge">
<title>CPM_0_1&#45;&gt;cell_type_0</title>
<path fill="none" stroke="#8f100d" stroke-width="3" d="M690.01,-269.83C703.86,-262.96 720.64,-254.11 735,-245 745.79,-238.15 757.06,-229.94 767.02,-222.27"/>
<polygon fill="#8f100d" stroke="#8f100d" stroke-width="3" points="769.33,-224.91 775.05,-215.99 765.02,-219.4 769.33,-224.91"/>
</g>
<!-- Chemotaxis_2 -->
<g id="node11" class="node">
<title>Chemotaxis_2</title>
<g id="a_node11"><a xlink:href="morph://MorpheusModel/CellTypes/CellType[0]/Chemotaxis" xlink:title="&lt;TABLE&gt;">
<polygon fill="#fffea3" stroke="transparent" points="505.5,-214 424.5,-214 424.5,-178 505.5,-178 505.5,-214"/>
<text text-anchor="start" x="429" y="-192" font-family="times" font-size="15.00">Chemotaxis</text>
<polygon fill="none" stroke="black" points="424.5,-183.5 424.5,-208.5 505.5,-208.5 505.5,-183.5 424.5,-183.5"/>
</a>
</g>
</g>
<!-- CPM_0_1&#45;&gt;Chemotaxis_2 -->
<g id="edge1" class="edge">
<title>CPM_0_1&#45;&gt;Chemotaxis_2</title>
<path fill="none" stroke="#38568c" stroke-dasharray="5,2" d="M633.74,-269.96C621.72,-264.89 607.4,-259.48 594,-256 557.56,-246.54 543.5,-262.18 510,-245"/>
</g>
<!-- U_0&#45;&gt;Diffusion_0_1 -->
<g id="edge8" class="edge">
<title>U_0&#45;&gt;Diffusion_0_1</title>
<path fill="none" stroke="#112c5f" stroke-width="2" d="M949.3,-50.16C954.49,-58.32 960.21,-68.7 965.04,-78.57"/>
<polygon fill="#112c5f" stroke="#112c5f" stroke-width="2" points="961.95,-80.21 969.36,-87.78 968.29,-77.24 961.95,-80.21"/>
</g>
<!-- U_0&#45;&gt;Chemotaxis_2 -->
<g id="edge7" class="edge">
<title>U_0&#45;&gt;Chemotaxis_2</title>
<path fill="none" stroke="#112c5f" stroke-width="2" d="M909,-35.45C811.93,-37.34 484.81,-46.18 454,-80 432.44,-103.66 442.04,-142.52 452.33,-168.43"/>
<polygon fill="#112c5f" stroke="#112c5f" stroke-width="2" points="449.12,-169.82 456.24,-177.67 455.56,-167.09 449.12,-169.82"/>
</g>
<!-- NeighborhoodReporter_2_0 -->
<g id="node10" class="node">
<title>NeighborhoodReporter_2_0</title>
<g id="a_node10"><a xlink:href="morph://MorpheusModel/CellTypes/CellType[0]/NeighborhoodReporter" xlink:title="&lt;TABLE&gt;">
<polygon fill="#fffea3" stroke="transparent" points="406,-220 258,-220 258,-172 406,-172 406,-220"/>
<text text-anchor="start" x="262" y="-204" font-family="times" font-size="15.00">NeighborhoodReporter</text>
<text text-anchor="start" x="325.5" y="-181" font-family="times" font-size="15.00">&#45;1</text>
<polygon fill="black" stroke="black" points="258,-196 258,-196 406,-196 406,-196 258,-196"/>
<polygon fill="none" stroke="black" points="258,-172 258,-220 406,-220 406,-172 258,-172"/>
</a>
</g>
</g>
<!-- cell_type_0&#45;&gt;NeighborhoodReporter_2_0 -->
<g id="edge12" class="edge">
<title>cell_type_0&#45;&gt;NeighborhoodReporter_2_0</title>
<path fill="none" stroke="#112c5f" stroke-width="2" d="M778.9,-216.89C765.56,-229.7 746.52,-244.73 726,-250.5 709.64,-255.1 436.36,-255.1 420,-250.5 402.36,-245.54 384.81,-235.88 370.07,-226.05"/>
<polygon fill="#112c5f" stroke="#112c5f" stroke-width="2" points="371.96,-223.1 361.74,-220.28 367.97,-228.86 371.96,-223.1"/>
</g>
<!-- celltype_cells_id_0 -->
<g id="node6" class="node">
<title>celltype_cells_id_0</title>
<ellipse fill="#d3d247" stroke="black" cx="99" cy="-284" rx="83.39" ry="18"/>
<text text-anchor="middle" x="99" y="-280.3" font-family="Times,serif" font-size="14.00">celltype.cells.id</text>
</g>
<!-- celltype_cells_id_0&#45;&gt;NeighborhoodReporter_2_0 -->
<g id="edge14" class="edge">
<title>celltype_cells_id_0&#45;&gt;NeighborhoodReporter_2_0</title>
<path fill="none" stroke="#112c5f" stroke-width="2" d="M139.05,-268.22C172.18,-255.99 220.07,-238.31 259.85,-223.63"/>
<polygon fill="#112c5f" stroke="#112c5f" stroke-width="2" points="261.08,-226.91 269.25,-220.16 258.65,-220.34 261.08,-226.91"/>
</g>
<!-- p_0 -->
<g id="node7" class="node">
<title>p_0</title>
<ellipse fill="#d3d247" stroke="black" cx="973" cy="-196" rx="27" ry="18"/>
<ellipse fill="none" stroke="black" cx="973" cy="-196" rx="31" ry="22"/>
<text text-anchor="middle" x="973" y="-192.3" font-family="Times,serif" font-size="14.00">p</text>
</g>
<!-- System_1_10 -->
<g id="node8" class="node">
<title>System_1_10</title>
<g id="a_node8"><a xlink:href="morph://MorpheusModel/Global/System" xlink:title="&lt;TABLE&gt;">
<polygon fill="#fffea3" stroke="transparent" points="924,-136 870,-136 870,-88 924,-88 924,-136"/>
<text text-anchor="start" x="875" y="-120" font-family="times" font-size="15.00">System</text>
<text text-anchor="start" x="889.5" y="-97" font-family="times" font-size="15.00">10</text>
<polygon fill="black" stroke="black" points="871,-112 871,-112 924,-112 924,-112 871,-112"/>
<polygon fill="none" stroke="black" points="870.5,-88 870.5,-136 923.5,-136 923.5,-88 870.5,-88"/>
</a>
</g>
</g>
<!-- p_0&#45;&gt;System_1_10 -->
<g id="edge16" class="edge">
<title>p_0&#45;&gt;System_1_10</title>
<path fill="none" stroke="#112c5f" stroke-width="2" d="M956.51,-177.21C947.43,-167.41 935.9,-154.98 925.42,-143.66"/>
<polygon fill="#112c5f" stroke="#112c5f" stroke-width="2" points="927.74,-141.01 918.37,-136.06 922.6,-145.77 927.74,-141.01"/>
</g>
<!-- System_1_10&#45;&gt;U_0 -->
<g id="edge6" class="edge">
<title>System_1_10&#45;&gt;U_0</title>
<path fill="none" stroke="#8f100d" stroke-width="3" d="M908.91,-87.78C913.32,-79.19 918.34,-69.41 922.86,-60.61"/>
<polygon fill="#8f100d" stroke="#8f100d" stroke-width="3" points="926.05,-62.06 927.5,-51.57 919.82,-58.87 926.05,-62.06"/>
</g>
<!-- d_1 -->
<g id="node9" class="node">
<title>d_1</title>
<g id="a_node9"><a xlink:href="morph://MorpheusModel/Global/System/Constant" xlink:title="d">
<ellipse fill="#d3d247" stroke="black" cx="897" cy="-196" rx="27" ry="18"/>
<text text-anchor="middle" x="897" y="-192.3" font-family="Times,serif" font-size="14.00">d</text>
</a>
</g>
</g>
<!-- d_1&#45;&gt;System_1_10 -->
<g id="edge15" class="edge">
<title>d_1&#45;&gt;System_1_10</title>
<path fill="none" stroke="#112c5f" stroke-width="2" d="M897,-177.61C897,-168.58 897,-157.24 897,-146.59"/>
<polygon fill="#112c5f" stroke="#112c5f" stroke-width="2" points="900.5,-146.28 897,-136.28 893.5,-146.28 900.5,-146.28"/>
</g>
<!-- neighbors_2 -->
<g id="node15" class="node">
<title>neighbors_2</title>
<g id="a_node15"><a xlink:href="morph://MorpheusModel/CellTypes/CellType[0]/Property[2]" xlink:title="neighbors">
<ellipse fill="#d3d247" stroke="black" cx="525" cy="-112" rx="57.39" ry="18"/>
<text text-anchor="middle" x="525" y="-108.3" font-family="Times,serif" font-size="14.00">neighbors</text>
</a>
</g>
</g>
<!-- NeighborhoodReporter_2_0&#45;&gt;neighbors_2 -->
<g id="edge5" class="edge">
<title>NeighborhoodReporter_2_0&#45;&gt;neighbors_2</title>
<path fill="none" stroke="#8f100d" stroke-width="3" d="M386.27,-171.94C416.93,-158.92 454.66,-142.89 483.03,-130.83"/>
<polygon fill="#8f100d" stroke="#8f100d" stroke-width="3" points="484.43,-134.04 492.27,-126.91 481.7,-127.6 484.43,-134.04"/>
</g>
<!-- c_2 -->
<g id="node12" class="node">
<title>c_2</title>
<g id="a_node12"><a xlink:href="morph://MorpheusModel/CellTypes/CellType[0]/Property[0]" xlink:title="c">
<ellipse fill="#d3d247" stroke="black" cx="227" cy="-284" rx="27" ry="18"/>
<text text-anchor="middle" x="227" y="-280.3" font-family="Times,serif" font-size="14.00">c</text>
</a>
</g>
</g>
<!-- c_2&#45;&gt;Chemotaxis_2 -->
<g id="edge9" class="edge">
<title>c_2&#45;&gt;Chemotaxis_2</title>
<path fill="none" stroke="#112c5f" stroke-width="2" d="M241.95,-268.75C248.02,-263.82 255.39,-258.84 263,-256 295.98,-243.72 389.3,-260.28 421,-245 431.5,-239.94 440.67,-231.18 447.89,-222.51"/>
<polygon fill="#112c5f" stroke="#112c5f" stroke-width="2" points="450.85,-224.41 454.19,-214.35 445.31,-220.13 450.85,-224.41"/>
</g>
<!-- cell_center_2 -->
<g id="node13" class="node">
<title>cell_center_2</title>
<ellipse fill="#b5b426" stroke="black" cx="332" cy="-284" rx="59.59" ry="18"/>
<text text-anchor="middle" x="332" y="-280.3" font-family="Times,serif" font-size="14.00">cell.center</text>
</g>
<!-- cell_center_2&#45;&gt;cell_center_0 -->
<g id="edge11" class="edge">
<title>cell_center_2&#45;&gt;cell_center_0</title>
<path fill="none" stroke="#38568c" stroke-dasharray="5,2" d="M363.34,-268.55C374.94,-263.79 388.35,-258.96 401,-256 455.73,-243.18 472.07,-256.96 527,-245 560.42,-237.72 596.89,-224.42 623.48,-213.66"/>
</g>
<!-- cell_center_2&#45;&gt;NeighborhoodReporter_2_0 -->
<g id="edge10" class="edge">
<title>cell_center_2&#45;&gt;NeighborhoodReporter_2_0</title>
<path fill="none" stroke="#112c5f" stroke-width="2" d="M332,-265.6C332,-255.5 332,-242.44 332,-230.43"/>
<polygon fill="#112c5f" stroke="#112c5f" stroke-width="2" points="335.5,-230.25 332,-220.25 328.5,-230.25 335.5,-230.25"/>
</g>
<!-- cell_type_2 -->
<g id="node14" class="node">
<title>cell_type_2</title>
<g id="a_node14"><a xlink:href="morph://MorpheusModel/CellTypes/CellType[0]" xlink:title="cell.type">
<ellipse fill="#d3d247" stroke="black" cx="460" cy="-284" rx="50.09" ry="18"/>
<text text-anchor="middle" x="460" y="-280.3" font-family="Times,serif" font-size="14.00">cell.type</text>
</a>
</g>
</g>
<!-- cell_type_2&#45;&gt;cell_type_0 -->
<g id="edge13" class="edge">
<title>cell_type_2&#45;&gt;cell_type_0</title>
<path fill="none" stroke="#38568c" stroke-dasharray="5,2" d="M485.96,-268.55C495.98,-263.67 507.73,-258.76 519,-256 565.68,-244.57 689.87,-261.52 735,-245 751.4,-239 767.03,-227.14 778.62,-216.71"/>
</g>
<!-- p_2 -->
<g id="node16" class="node">
<title>p_2</title>
<g id="a_node16"><a xlink:href="morph://MorpheusModel/CellTypes/CellType[0]/Property[1]" xlink:title="p">
<ellipse fill="#d3d247" stroke="black" cx="555" cy="-284" rx="27" ry="18"/>
<text text-anchor="middle" x="555" y="-280.3" font-family="Times,serif" font-size="14.00">p</text>
</a>
</g>
</g>
<!-- p_2&#45;&gt;p_0 -->
<g id="edge17" class="edge">
<title>p_2&#45;&gt;p_0</title>
<path fill="none" stroke="#38568c" stroke-dasharray="5,2" d="M568.1,-268.05C573.17,-263.3 579.36,-258.61 586,-256 622.22,-241.79 901.36,-262.72 936,-245 947.8,-238.96 956.95,-227.24 963.2,-216.89"/>
</g>
<!-- p_3 -->
<g id="node17" class="node">
<title>p_3</title>
<g id="a_node17"><a xlink:href="morph://MorpheusModel/CellTypes/CellType[1]/Constant[1]" xlink:title="p">
<ellipse fill="#d3d247" stroke="black" cx="973" cy="-284" rx="27" ry="18"/>
<text text-anchor="middle" x="973" y="-280.3" font-family="Times,serif" font-size="14.00">p</text>
</a>
</g>
</g>
<!-- p_3&#45;&gt;p_0 -->
<g id="edge18" class="edge">
<title>p_3&#45;&gt;p_0</title>
<path fill="none" stroke="#38568c" stroke-dasharray="5,2" d="M973,-265.6C973,-251.85 973,-232.63 973,-218.02"/>
</g>
</g>
</svg>
