<?xml version="1.0" encoding="UTF-8" standalone="no"?>
<!-- Created with Inkscape (http://www.inkscape.org/) -->

<svg
   xmlns:dc="http://purl.org/dc/elements/1.1/"
   xmlns:cc="http://creativecommons.org/ns#"
   xmlns:rdf="http://www.w3.org/1999/02/22-rdf-syntax-ns#"
   xmlns:svg="http://www.w3.org/2000/svg"
   xmlns="http://www.w3.org/2000/svg"
   xmlns:sodipodi="http://sodipodi.sourceforge.net/DTD/sodipodi-0.dtd"
   xmlns:inkscape="http://www.inkscape.org/namespaces/inkscape"
   width="512"
   height="512"
   viewBox="0 0 511.99999 511.99999"
   id="svg4252"
   version="1.1"
   inkscape:version="0.91 r13725"
   sodipodi:docname="icon_running.svg">
  <defs
     id="defs4254" />
  <sodipodi:namedview
     id="base"
     pagecolor="#ffffff"
     bordercolor="#666666"
     borderopacity="1.0"
     inkscape:pageopacity="0.0"
     inkscape:pageshadow="2"
     inkscape:zoom="0.35"
     inkscape:cx="704.19967"
     inkscape:cy="-65.086062"
     inkscape:document-units="px"
     inkscape:current-layer="layer1"
     showgrid="true"
     fit-margin-top="0"
     fit-margin-left="0"
     fit-margin-right="0"
     fit-margin-bottom="0"
     units="px"
     inkscape:window-width="1440"
     inkscape:window-height="851"
     inkscape:window-x="0"
     inkscape:window-y="1"
     inkscape:window-maximized="1">
    <inkscape:grid
       type="xygrid"
       id="grid6184" />
  </sodipodi:namedview>
  <metadata
     id="metadata4257">
    <rdf:RDF>
      <cc:Work
         rdf:about="">
        <dc:format>image/svg+xml</dc:format>
        <dc:type
           rdf:resource="http://purl.org/dc/dcmitype/StillImage" />
        <dc:title></dc:title>
      </cc:Work>
    </rdf:RDF>
  </metadata>
  <g
     inkscape:label="Layer 1"
     inkscape:groupmode="layer"
     id="layer1"
     transform="translate(786.34253,44.723854)">
    <g
       id="g4834"
       transform="matrix(1.1376789,0,0,1.1376789,139.26278,-95.334072)">
      <path
         inkscape:connector-curvature="0"
         id="path4201"
         d="m -543.07092,343.75513 c -20.35498,9.4421 -41.95821,17.30807 -61.53526,27.73245 -3.89839,28.31966 -8.26533,57.40353 -11.14111,85.62695 17.08567,2.13604 35.61443,0.27344 53.24478,0.89688 41.17211,-0.38528 82.45322,0.85986 123.55618,-1.53229 21.57251,-6.81279 39.55687,-27.18969 38.73336,-50.59829 0.17785,-15.69896 1.23745,-31.96057 -0.42104,-47.29785 -26.24238,-14.26161 -53.45825,-27.4728 -80.07467,-41.32993 -21.0058,7.31216 -41.5959,17.95467 -62.36224,26.50208 z"
         style="opacity:1;fill:#0000ff;fill-opacity:1;fill-rule:nonzero;stroke:none;stroke-width:10;stroke-linecap:butt;stroke-miterlimit:4;stroke-dasharray:none;stroke-dashoffset:0;stroke-opacity:1" />
      <path
         inkscape:connector-curvature="0"
         id="path4203"
         d="m -528.54627,181.31847 c -43.11848,0.65212 -86.29365,0.86385 -129.36027,2.81262 -4.785,8.90961 -4.22684,20.53946 -6.99206,30.42416 -5.31997,29.69721 -11.02793,59.34444 -15.62428,89.15973 6.58865,8.71728 17.32991,14.37941 25.51666,21.82779 16.41808,12.31911 32.16526,26.3592 49.13182,37.40309 40.16332,-17.00111 80.51901,-34.47799 120.2934,-52.67676 2.51976,-6.7584 -2.59881,-14.77474 -2.9309,-21.89515 -8.01291,-35.36461 -15.33774,-70.96903 -24.92701,-105.92467 -4.08803,-2.75294 -10.46846,-0.24082 -15.10736,-1.13081 z"
         style="opacity:1;fill:#ffff00;fill-opacity:1;fill-rule:nonzero;stroke:none;stroke-width:10;stroke-linecap:butt;stroke-miterlimit:4;stroke-dasharray:none;stroke-dashoffset:0;stroke-opacity:1" />
      <path
         inkscape:connector-curvature="0"
         id="path4205"
         d="m -729.08743,80.883465 c -24.21965,2.82593 -45.92329,23.761595 -48.47227,47.973135 0.14758,61.48396 -1.56303,123.04459 0.38082,184.48475 6.32383,3.39365 15.31394,-1.33368 22.60247,-1.08677 21.59002,-3.57033 43.99603,-4.07821 65.00411,-10.28775 4.53462,-7.54075 3.69439,-17.89453 6.21186,-26.4487 5.56587,-31.56077 12.21975,-63.13505 16.94104,-94.71603 -18.5044,-32.7179 -36.00569,-65.93283 -52.68684,-99.609965 -2.80956,-2.24207 -6.71993,-0.11047 -9.98119,-0.30867 z"
         style="opacity:1;fill:#ff0000;fill-opacity:1;fill-rule:nonzero;stroke:none;stroke-width:10;stroke-linecap:butt;stroke-miterlimit:4;stroke-dasharray:none;stroke-dashoffset:0;stroke-opacity:1" />
      <rect
         style="fill:none;fill-opacity:1;stroke:#000000;stroke-width:10;stroke-miterlimit:4;stroke-dasharray:none;stroke-opacity:1"
         id="rect2816"
         width="385.54218"
         height="385.54218"
         x="-781.34253"
         y="76.733971"
         ry="58.286472" />
      <g
         id="g3640"
         transform="translate(-726.42858,-183.57139)">
        <path
           inkscape:connector-curvature="0"
           sodipodi:nodetypes="cc"
           id="path3611"
           d="M 9.1050921,261.07786 C 41.74246,326.35259 65.094782,365.57784 65.094782,365.57784"
           style="fill:none;stroke:#000000;stroke-width:10;stroke-linecap:round;stroke-linejoin:miter;stroke-miterlimit:4;stroke-dasharray:none;stroke-opacity:1" />
        <path
           inkscape:connector-curvature="0"
           sodipodi:nodetypes="cc"
           id="path3637"
           d="M 43.608517,492.04762 C 100.7239,536.92399 118.40247,550.5229 118.40247,550.5229"
           style="fill:none;stroke:#000000;stroke-width:10;stroke-linecap:round;stroke-linejoin:miter;stroke-miterlimit:4;stroke-dasharray:none;stroke-opacity:1" />
        <path
           inkscape:connector-curvature="0"
           sodipodi:nodetypes="cc"
           id="path3639"
           d="m 118.67445,551.61081 127.82966,-55.7555"
           style="fill:none;stroke:#000000;stroke-width:10;stroke-linecap:round;stroke-linejoin:miter;stroke-miterlimit:4;stroke-dasharray:none;stroke-opacity:1" />
        <path
           inkscape:connector-curvature="0"
           sodipodi:nodetypes="cc"
           id="path3641"
           d="M 247.864,497.2152 216.58653,362.58608"
           style="fill:none;stroke:#000000;stroke-width:10;stroke-linecap:round;stroke-linejoin:miter;stroke-miterlimit:4;stroke-dasharray:none;stroke-opacity:1" />
        <path
           inkscape:connector-curvature="0"
           sodipodi:nodetypes="cc"
           id="path3643"
           d="m 215.22664,358.50642 81.59341,-87.03297"
           style="fill:none;stroke:#000000;stroke-width:10;stroke-linecap:round;stroke-linejoin:miter;stroke-miterlimit:4;stroke-dasharray:none;stroke-opacity:1" />
        <path
           inkscape:connector-curvature="0"
           sodipodi:nodetypes="cc"
           id="path3645"
           d="m 118.67445,550.25092 -12.23901,91.11263"
           style="fill:none;stroke:#000000;stroke-width:10;stroke-linecap:round;stroke-linejoin:miter;stroke-miterlimit:4;stroke-dasharray:none;stroke-opacity:1" />
        <path
           inkscape:connector-curvature="0"
           id="path3649"
           d="m 249.2239,498.57509 76.65814,38.93252"
           style="fill:none;stroke:#000000;stroke-width:10;stroke-linecap:round;stroke-linejoin:miter;stroke-miterlimit:4;stroke-dasharray:none;stroke-opacity:1"
           sodipodi:nodetypes="cc" />
        <path
           inkscape:connector-curvature="0"
           sodipodi:nodetypes="cc"
           id="path3651"
           d="M 67.542585,363.40202 213.05082,360.68224"
           style="fill:none;stroke:#000000;stroke-width:10;stroke-linecap:round;stroke-linejoin:miter;stroke-miterlimit:4;stroke-dasharray:none;stroke-opacity:1" />
        <path
           inkscape:connector-curvature="0"
           sodipodi:nodetypes="cc"
           id="path3653"
           d="M 41.160713,489.05586 64.27885,363.94597"
           style="fill:none;stroke:#000000;stroke-width:10;stroke-linecap:round;stroke-linejoin:miter;stroke-miterlimit:4;stroke-dasharray:none;stroke-opacity:1" />
        <path
           inkscape:connector-curvature="0"
           sodipodi:nodetypes="cc"
           id="path3761"
           d="m 41.160713,490.41575 -92.472526,12.23902"
           style="fill:none;stroke:#000000;stroke-width:10;stroke-linecap:round;stroke-linejoin:miter;stroke-miterlimit:4;stroke-dasharray:none;stroke-opacity:1" />
      </g>
    </g>
    <path
       style="fill:#000000;fill-opacity:1;fill-rule:evenodd;stroke:#000000;stroke-width:0.39945322px;stroke-linecap:butt;stroke-linejoin:miter;stroke-opacity:1"
       d="m -570.1428,269.1832 0,-135.8141 119.39628,67.90705 z"
       id="path6182"
       inkscape:connector-curvature="0"
       sodipodi:nodetypes="cccc" />
  </g>
</svg>
